<svg xmlns="http://www.w3.org/2000/svg" viewBox="0 0 400 300">
    <!-- 背景 -->
    <rect width="400" height="300" fill="#FFF8F0"/>
    
    <!-- 背景裝飾圖案 -->
    <circle cx="50" cy="50" r="8" fill="#FFB74D" opacity="0.3"/>
    <circle cx="350" cy="80" r="12" fill="#E57373" opacity="0.3"/>
    <circle cx="80" cy="250" r="10" fill="#A1887F" opacity="0.3"/>
    <circle cx="320" cy="220" r="15" fill="#FFB74D" opacity="0.3"/>
    
    <!-- 主體人物 -->
    <g transform="translate(180, 120)">
        <!-- 身體 -->
        <path d="M0,0 q-40,60 -20,100 q30,60 80,0 q20,-40 -20,-100" fill="#E57373"/>
        
        <!-- 頭部 -->
        <circle cx="20" cy="-10" r="30" fill="#FFF8F0"/>
        <path d="M10,-20 q5,-10 20,0" fill="none" stroke="#A1887F" stroke-width="2"/>
        <circle cx="10" cy="-15" r="3" fill="#A1887F"/>
        <circle cx="30" cy="-15" r="3" fill="#A1887F"/>
        
        <!-- 帽子 -->
        <path d="M-10,-40 q20,-10 60,0" fill="none" stroke="#A1887F" stroke-width="4"/>
        <rect x="-5" y="-45" width="50" height="15" fill="#A1887F" rx="5"/>
        
        <!-- 手部 -->
        <path d="M-20,30 q-20,-20 -40,0" fill="none" stroke="#FFF8F0" stroke-width="8" stroke-linecap="round"/>
        <path d="M60,30 q20,-20 40,0" fill="none" stroke="#FFF8F0" stroke-width="8" stroke-linecap="round"/>
        
        <!-- 托盤 -->
        <ellipse cx="60" cy="35" rx="25" ry="10" fill="#FFB74D"/>
        <path d="M35,35 h50" fill="none" stroke="#A1887F" stroke-width="2"/>
        
        <!-- 蛋糕 -->
        <path d="M50,25 l20,0 l-10,-15 z" fill="#FFF8F0"/>
    </g>
    
    <!-- 裝飾元素 -->
    <g>
        <circle cx="100" cy="150" r="5" fill="#FFB74D"/>
        <circle cx="300" cy="150" r="5" fill="#E57373"/>
        <circle cx="200" cy="50" r="5" fill="#A1887F"/>
    </g>
</svg>